<svg xmlns="http://www.w3.org/2000/svg" xmlns:xlink="http://www.w3.org/1999/xlink" width="337.5" height="362.5" viewBox="0 0 337.5 362.5">
  <defs>
    <linearGradient id="linear-gradient" x1="0.5" x2="0.5" y2="1" gradientUnits="objectBoundingBox">
      <stop offset="0" stop-color="#1d96f3"/>
      <stop offset="0.784" stop-color="#4b17e6"/>
    </linearGradient>
  </defs>
  <g id="Group_2993" data-name="Group 2993" transform="translate(-540.01 1129.47)">
    <g id="Group_2989" data-name="Group 2989">
      <path id="Path_2831" data-name="Path 2831" d="M820.91-833.17a155.014,155.014,0,0,1-74.72,42.98c.05-.59.07-1.18.07-1.78a24.807,24.807,0,0,0-2.34-10.55,142.592,142.592,0,0,0,68.02-39.36,6.251,6.251,0,0,1,8.83-.13A6.254,6.254,0,0,1,820.91-833.17Z" fill="#7b8f9e"/>
    </g>
    <rect id="Rectangle_1171" data-name="Rectangle 1171" width="50" height="125" rx="25" transform="translate(777.511 -979.471)" fill="url(#linear-gradient)"/>
    <path id="Path_2832" data-name="Path 2832" d="M746.26-791.97c0,.6-.02,1.19-.07,1.78a24.9,24.9,0,0,1-7.25,15.9,24.942,24.942,0,0,1-17.68,7.32h-25a25,25,0,0,1-25-25,24.941,24.941,0,0,1,7.32-17.68,24.941,24.941,0,0,1,17.68-7.32h25a24.966,24.966,0,0,1,22.66,14.45A24.807,24.807,0,0,1,746.26-791.97Z" fill="#5a7386"/>
    <path id="Path_2833" data-name="Path 2833" d="M858.761-941.971" fill="none" stroke="#707070" stroke-miterlimit="10" stroke-width="25"/>
    <g id="Group_2990" data-name="Group 2990">
      <path id="Path_2834" data-name="Path 2834" d="M813.49-1055.97a12.323,12.323,0,0,1-2.08,3.91,12.5,12.5,0,0,1-17.56,2.07,136.058,136.058,0,0,0-85.09-29.48,136.058,136.058,0,0,0-85.09,29.48,12.429,12.429,0,0,1-7.73,2.69,12.45,12.45,0,0,1-9.82-4.76,12.351,12.351,0,0,1-2.09-3.91,12.527,12.527,0,0,1,4.16-13.65,160.649,160.649,0,0,1,96.49-34.79c.21-.02.42-.02.63-.02,1.14-.03,2.3-.04,3.45-.04s2.31.01,3.45.04c.21,0,.42,0,.63.02a160.649,160.649,0,0,1,96.49,34.79A12.494,12.494,0,0,1,813.49-1055.97Z" fill="#5a7386"/>
    </g>
    <path id="Path_2835" data-name="Path 2835" d="M877.51-938.85v43.75a28.122,28.122,0,0,1-28.12,28.13,9.381,9.381,0,0,1-9.38-9.38V-957.6a9.38,9.38,0,0,1,6.25-8.83v-.54a136.85,136.85,0,0,0-32.77-89,12.494,12.494,0,0,0-4.16-13.65,160.649,160.649,0,0,0-96.49-34.79c-.21-.02-.42-.02-.63-.02-1.14-.03-2.3-.04-3.45-.04s-2.31.01-3.45.04c-.21,0-.42,0-.63.02a160.649,160.649,0,0,0-96.49,34.79,12.527,12.527,0,0,0-4.16,13.65,136.849,136.849,0,0,0-32.77,89v.54a9.361,9.361,0,0,1,6.25,8.83v81.25a9.378,9.378,0,0,1-9.37,9.38,28.125,28.125,0,0,1-28.13-28.13v-43.75a27.942,27.942,0,0,1,6.25-17.66v-10.46c0-89.6,72.9-162.5,162.5-162.5s162.5,72.9,162.5,162.5v10.46A27.942,27.942,0,0,1,877.51-938.85Z" fill="#9cabb7"/>
    <g id="Group_2992" data-name="Group 2992">
      <g id="Group_2991" data-name="Group 2991">
        <rect id="Rectangle_1172" data-name="Rectangle 1172" width="50" height="125" rx="25" transform="translate(640.011 -854.471) rotate(-180)" fill="url(#linear-gradient)"/>
      </g>
    </g>
  </g>
</svg>
