<svg xmlns="http://www.w3.org/2000/svg" xmlns:xlink="http://www.w3.org/1999/xlink" width="400" height="300" viewBox="0 0 400 300">
  <defs>
    <linearGradient id="linear-gradient" x1="0.5" y1="1" x2="0.5" gradientUnits="objectBoundingBox">
      <stop offset="0" stop-color="#1d96f3"/>
      <stop offset="0.784" stop-color="#4b17e6"/>
    </linearGradient>
  </defs>
  <g id="Course_Creators" data-name="Course Creators" transform="translate(-3779.371 -171.09)">
    <path id="Path_2775" data-name="Path 2775" d="M3829.371,196.09v225h300v-225Zm268.03,93.29-18.03,7.07v87.14a12.5,12.5,0,0,1-25,0V354.4l-71.23,28.46a10.132,10.132,0,0,1-7.54,0l-74.39-29.73c-5.54-2.21-9.33-8.99-9.33-16.67V314.29h-.01V301.37l-30.54-11.98c-9.29-3.65-9.28-20.94.02-24.57l106.38-41.51a31.652,31.652,0,0,1,23.29,0l106.37,41.51C4106.691,268.45,4106.7,285.74,4097.4,289.38Z" fill="#eff1f3"/>
    <path id="Path_2776" data-name="Path 2776" d="M4154.371,190.24V421.09h-25v-225h-300v225h-25V190.24a19.145,19.145,0,0,1,19.15-19.15h311.7A19.145,19.145,0,0,1,4154.371,190.24Z" fill="#9cabb7"/>
    <path id="Path_2777" data-name="Path 2777" d="M4097.4,289.38l-18.03,7.07-12.49,4.9-12.51,4.91-62.85,24.65a32.921,32.921,0,0,1-24.38,0l-75.26-29.53-.01-.01-30.54-11.98c-9.29-3.65-9.28-20.94.02-24.57l106.38-41.51a31.652,31.652,0,0,1,23.29,0l106.37,41.51C4106.691,268.45,4106.7,285.74,4097.4,289.38Z" fill="#bdc7cf"/>
    <g id="Group_2954" data-name="Group 2954">
      <path id="Path_2778" data-name="Path 2778" d="M4179.371,429.25v9.18a32.663,32.663,0,0,1-32.66,32.66h-334.68a32.663,32.663,0,0,1-32.66-32.66v-9.18a8.156,8.156,0,0,1,8.16-8.16h144.73a2.883,2.883,0,0,0-2.89,2.88v10.57a11.548,11.548,0,0,0,11.55,11.55h76.91a11.549,11.549,0,0,0,11.55-11.55V423.97a2.889,2.889,0,0,0-2.89-2.88H4171.2A8.164,8.164,0,0,1,4179.371,429.25Z" fill="#bdc7cf"/>
    </g>
    <g id="Group_2955" data-name="Group 2955">
      <path id="Path_2779" data-name="Path 2779" d="M4054.371,319.18V354.4l-71.23,28.46a10.132,10.132,0,0,1-7.54,0l-74.39-29.73c-5.54-2.21-9.33-8.99-9.33-16.67V314.29l75.26,29.54a32.921,32.921,0,0,0,24.38,0Z" fill="#9cabb7"/>
    </g>
    <g id="Group_2956" data-name="Group 2956">
      <path id="Path_2780" data-name="Path 2780" d="M4054.371,306.26v12.92l-62.85,24.65a32.921,32.921,0,0,1-24.38,0l-75.26-29.54V301.38l75.26,29.53a32.921,32.921,0,0,0,24.38,0Z" fill="#7b8f9e"/>
      <path id="Path_2781" data-name="Path 2781" d="M3891.881,301.38v12.91h-.01V301.37Z" fill="#7b8f9e"/>
    </g>
    <g id="Group_2957" data-name="Group 2957">
      <path id="Path_2782" data-name="Path 2782" d="M4079.371,296.45v87.14a12.5,12.5,0,0,1-25,0V306.26l12.51-4.91Z" fill="url(#linear-gradient)"/>
    </g>
    <g id="Group_2958" data-name="Group 2958">
      <path id="Path_2783" data-name="Path 2783" d="M4029.381,423.97v10.57a11.549,11.549,0,0,1-11.55,11.55h-76.91a11.548,11.548,0,0,1-11.55-11.55V423.97a2.883,2.883,0,0,1,2.89-2.88h94.23A2.889,2.889,0,0,1,4029.381,423.97Z" fill="#7b8f9e"/>
    </g>
  </g>
</svg>
