<svg xmlns="http://www.w3.org/2000/svg" xmlns:xlink="http://www.w3.org/1999/xlink" width="200.585" height="349.894" viewBox="0 0 200.585 349.894">
  <defs>
    <linearGradient id="linear-gradient" x1="0.499" y1="0.999" x2="0.499" y2="-0.002" gradientUnits="objectBoundingBox">
      <stop offset="0" stop-color="#1d96f3"/>
      <stop offset="1" stop-color="#4b17e6"/>
    </linearGradient>
    <linearGradient id="linear-gradient-2" x1="0.5" y1="1" x2="0.5" y2="0" xlink:href="#linear-gradient"/>
  </defs>
  <g id="Group_3015" data-name="Group 3015" transform="translate(-6880.279 1378.155)">
    <path id="Path_2887" data-name="Path 2887" d="M6922.275-1106.7h-.01l-.08-.19C6922.214-1106.831,6922.245-1106.761,6922.275-1106.7Z" fill="url(#linear-gradient)"/>
    <path id="Path_2888" data-name="Path 2888" d="M6940.847-1135.775l-6.88,27.87a6.248,6.248,0,0,1-7.56,4.57,6.221,6.221,0,0,1-4.13-3.37c-.03-.06-.06-.13-.09-.19l-40.52-89.15a.174.174,0,0,1-.02-.05,12.465,12.465,0,0,1-1-8.68,12.489,12.489,0,0,1,15.13-9.13l16.18,3.99C6916.577-1179.235,6926.987-1153.075,6940.847-1135.775Z" fill="url(#linear-gradient-2)"/>
    <path id="Path_2889" data-name="Path 2889" d="M7079.5-1196.095l-40.52,89.14c-.03.08-.07.17-.11.25a6.221,6.221,0,0,1-4.13,3.37,6.263,6.263,0,0,1-7.57-4.57l-7.02-28.44c13.61-17.27,23.83-43.13,28.42-73.41l16.8-4.15a12.494,12.494,0,0,1,15.13,9.13A12.458,12.458,0,0,1,7079.5-1196.095Z" fill="url(#linear-gradient-2)"/>
    <path id="Path_2890" data-name="Path 2890" d="M6980.277-1378.155c-20.78,0-70.96,59.26-70.96,132.36a241.126,241.126,0,0,0,2.64,35.88c4.62,30.68,15.03,56.84,28.89,74.14,1.65,2.06,3.35,4,5.1,5.8a6.173,6.173,0,0,0,4.44,1.82h59.77a6.156,6.156,0,0,0,4.44-1.82,83.078,83.078,0,0,0,5.55-6.37c13.61-17.27,23.83-43.13,28.42-73.41a241.748,241.748,0,0,0,2.66-36.04C7051.227-1318.9,7001.047-1378.155,6980.277-1378.155Zm0,124.97a24.97,24.97,0,0,1-24.97-24.97,24.968,24.968,0,0,1,24.97-24.96,24.966,24.966,0,0,1,24.96,24.96A24.968,24.968,0,0,1,6980.277-1253.185Z" fill="#bdc7cf"/>
    <path id="Path_2891" data-name="Path 2891" d="M7005.237-1278.155a24.968,24.968,0,0,1-24.96,24.97,24.97,24.97,0,0,1-24.97-24.97,24.968,24.968,0,0,1,24.97-24.96A24.966,24.966,0,0,1,7005.237-1278.155Z" fill="#bdc7cf"/>
    <path id="Path_2892" data-name="Path 2892" d="M7005.237-1278.155a24.968,24.968,0,0,1-24.96,24.97,24.97,24.97,0,0,1-24.97-24.97,24.968,24.968,0,0,1,24.97-24.96A24.966,24.966,0,0,1,7005.237-1278.155Z" fill="#bdc7cf"/>
    <path id="Path_2893" data-name="Path 2893" d="M7005.237-1278.155a24.968,24.968,0,0,1-24.96,24.97,24.97,24.97,0,0,1-24.97-24.97,24.968,24.968,0,0,1,24.97-24.96A24.966,24.966,0,0,1,7005.237-1278.155Z" fill="#5a7386"/>
    <g id="Group_3011" data-name="Group 3011">
      <path id="Path_2894" data-name="Path 2894" d="M6981-1028.261a6.25,6.25,0,0,1-6.25-6.25V-1106.7a6.25,6.25,0,0,1,6.25-6.25,6.25,6.25,0,0,1,6.25,6.25v72.188A6.25,6.25,0,0,1,6981-1028.261Z" fill="#7b8f9e"/>
    </g>
    <g id="Group_3012" data-name="Group 3012">
      <path id="Path_2895" data-name="Path 2895" d="M7004.684-1053.1a6.25,6.25,0,0,1-6.25-6.25v-27.158a6.25,6.25,0,0,1,6.25-6.25,6.25,6.25,0,0,1,6.25,6.25v27.158A6.25,6.25,0,0,1,7004.684-1053.1Z" fill="#7b8f9e"/>
    </g>
    <g id="Group_3013" data-name="Group 3013">
      <path id="Path_2896" data-name="Path 2896" d="M6955.273-1043.121a6.25,6.25,0,0,1-6.25-6.25v-37.139a6.25,6.25,0,0,1,6.25-6.25,6.25,6.25,0,0,1,6.25,6.25v37.139A6.25,6.25,0,0,1,6955.273-1043.121Z" fill="#7b8f9e"/>
    </g>
    <g id="Group_3014" data-name="Group 3014">
      <path id="Path_2897" data-name="Path 2897" d="M7004.684-1028.261a6.25,6.25,0,0,1-6.25-6.25v-5.048a6.25,6.25,0,0,1,6.25-6.25,6.25,6.25,0,0,1,6.25,6.25v5.048A6.25,6.25,0,0,1,7004.684-1028.261Z" fill="#7b8f9e"/>
    </g>
  </g>
</svg>
