<svg xmlns="http://www.w3.org/2000/svg" xmlns:xlink="http://www.w3.org/1999/xlink" width="400" height="300" viewBox="0 0 400 300">
  <defs>
    <linearGradient id="linear-gradient" x1="0.5" y1="1" x2="0.5" gradientUnits="objectBoundingBox">
      <stop offset="0.096" stop-color="#4723e7"/>
      <stop offset="0.905" stop-color="#2285f1"/>
    </linearGradient>
  </defs>
  <g id="Group_3013" data-name="Group 3013" transform="translate(-5744.794 1712.023)">
    <path id="Path_2887" data-name="Path 2887" d="M5794.794-1687.023v225h300v-225Zm49.87,200.129a12.572,12.572,0,0,1-12.57-12.569,12.564,12.564,0,0,1,12.57-12.56,12.556,12.556,0,0,1,12.56,12.56A12.563,12.563,0,0,1,5844.664-1486.894Zm50.06-.069a12.556,12.556,0,0,1-12.56-12.56,12.565,12.565,0,0,1,12.56-12.571,12.574,12.574,0,0,1,12.57,12.571A12.565,12.565,0,0,1,5894.724-1486.963Zm50,.069a12.563,12.563,0,0,1-12.56-12.569,12.556,12.556,0,0,1,12.56-12.56,12.564,12.564,0,0,1,12.57,12.56A12.572,12.572,0,0,1,5944.724-1486.894Zm49.8,0a12.563,12.563,0,0,1-12.56-12.569,12.556,12.556,0,0,1,12.56-12.56,12.565,12.565,0,0,1,12.57,12.56A12.572,12.572,0,0,1,5994.524-1486.894Zm50.2,0a12.563,12.563,0,0,1-12.56-12.569,12.556,12.556,0,0,1,12.56-12.56,12.564,12.564,0,0,1,12.57,12.56A12.572,12.572,0,0,1,6044.724-1486.894Zm25.07-60.129a10,10,0,0,1-10,10h-230a10,10,0,0,1-10-10v-105a10,10,0,0,1,10-10h230a10,10,0,0,1,10,10Z" fill="url(#linear-gradient)"/>
    <path id="Path_2888" data-name="Path 2888" d="M6119.794-1692.874v230.851h-25v-225h-300v225h-25v-230.851a19.144,19.144,0,0,1,19.15-19.149h311.7A19.144,19.144,0,0,1,6119.794-1692.874Z" fill="#9cabb7"/>
    <path id="Path_2889" data-name="Path 2889" d="M6144.794-1453.864v9.18a32.664,32.664,0,0,1-32.66,32.661h-334.68a32.664,32.664,0,0,1-32.66-32.661v-9.18a8.155,8.155,0,0,1,8.16-8.159h144.73a2.883,2.883,0,0,0-2.89,2.879v10.57a11.549,11.549,0,0,0,11.55,11.551h76.91a11.547,11.547,0,0,0,11.54-11.551v-10.57a2.88,2.88,0,0,0-2.88-2.879h144.71A8.163,8.163,0,0,1,6144.794-1453.864Z" fill="#bdc7cf"/>
    <rect id="Rectangle_1184" data-name="Rectangle 1184" width="0.001" transform="translate(5869.792 -1596.662) rotate(-14.036)" fill="#1d96f3"/>
    <path id="Path_2890" data-name="Path 2890" d="M5994.794-1459.144v10.57a11.547,11.547,0,0,1-11.54,11.551h-76.91a11.549,11.549,0,0,1-11.55-11.551v-10.57a2.883,2.883,0,0,1,2.89-2.879h94.23A2.88,2.88,0,0,1,5994.794-1459.144Z" fill="#7b8f9e"/>
    <path id="Path_2891" data-name="Path 2891" d="M6059.794-1662.023h-230a10,10,0,0,0-10,10v105a10,10,0,0,0,10,10h230a10,10,0,0,0,10-10v-105A10,10,0,0,0,6059.794-1662.023Zm-149.84,87.26a37.207,37.207,0,0,1-27.87,12.52,37.212,37.212,0,0,1-27.88-12.52,37.129,37.129,0,0,1-9.41-24.76,37.283,37.283,0,0,1,37.29-37.291,37.281,37.281,0,0,1,37.28,37.291A37.128,37.128,0,0,1,5909.954-1574.763Zm134.7,2.409h-99.86v-7.45h99.86Zm0-23.45h-99.86v-7.439h99.86Zm0-23.449H5944.8v-7.441h99.85Z" fill="#eff1f3"/>
    <path id="Path_2892" data-name="Path 2892" d="M5919.364-1599.523a37.281,37.281,0,0,0-37.28-37.291,37.283,37.283,0,0,0-37.29,37.291,37.129,37.129,0,0,0,9.41,24.76v-.621a12.733,12.733,0,0,1,12.74-12.73h30.27a12.733,12.733,0,0,1,12.74,12.73v.621A37.128,37.128,0,0,0,5919.364-1599.523Zm-37.28,4.439a13.938,13.938,0,0,1-13.94-13.939,13.938,13.938,0,0,1,13.94-13.94,13.937,13.937,0,0,1,13.93,13.94A13.936,13.936,0,0,1,5882.084-1595.084Z" fill="#dee3e7"/>
    <g id="Group_3011" data-name="Group 3011">
      <path id="Path_2893" data-name="Path 2893" d="M5909.954-1575.384v.621a37.207,37.207,0,0,1-27.87,12.52,37.212,37.212,0,0,1-27.88-12.52v-.621a12.733,12.733,0,0,1,12.74-12.73h30.27A12.733,12.733,0,0,1,5909.954-1575.384Z" fill="#7b8f9e"/>
      <path id="Path_2894" data-name="Path 2894" d="M5896.014-1609.023a13.936,13.936,0,0,1-13.93,13.939,13.938,13.938,0,0,1-13.94-13.939,13.938,13.938,0,0,1,13.94-13.94A13.937,13.937,0,0,1,5896.014-1609.023Z" fill="#7b8f9e"/>
    </g>
    <rect id="Rectangle_1185" data-name="Rectangle 1185" width="99.86" height="7.45" transform="translate(5944.794 -1579.803)" fill="#bdc7cf"/>
    <rect id="Rectangle_1186" data-name="Rectangle 1186" width="99.86" height="7.44" transform="translate(5944.794 -1603.243)" fill="#bdc7cf"/>
    <rect id="Rectangle_1187" data-name="Rectangle 1187" width="99.85" height="7.44" transform="translate(5944.804 -1626.693)" fill="#bdc7cf"/>
    <g id="Group_3012" data-name="Group 3012">
      <path id="Path_2895" data-name="Path 2895" d="M5857.224-1499.463a12.563,12.563,0,0,1-12.56,12.569,12.572,12.572,0,0,1-12.57-12.569,12.564,12.564,0,0,1,12.57-12.56A12.556,12.556,0,0,1,5857.224-1499.463Z" fill="#1d96f3"/>
      <path id="Path_2896" data-name="Path 2896" d="M5907.294-1499.523a12.565,12.565,0,0,1-12.57,12.56,12.556,12.556,0,0,1-12.56-12.56,12.565,12.565,0,0,1,12.56-12.571A12.574,12.574,0,0,1,5907.294-1499.523Z" fill="#1d96f3"/>
      <path id="Path_2897" data-name="Path 2897" d="M5957.294-1499.463a12.572,12.572,0,0,1-12.57,12.569,12.563,12.563,0,0,1-12.56-12.569,12.556,12.556,0,0,1,12.56-12.56A12.564,12.564,0,0,1,5957.294-1499.463Z" fill="#1d96f3"/>
      <path id="Path_2898" data-name="Path 2898" d="M6007.094-1499.463a12.572,12.572,0,0,1-12.57,12.569,12.563,12.563,0,0,1-12.56-12.569,12.556,12.556,0,0,1,12.56-12.56A12.565,12.565,0,0,1,6007.094-1499.463Z" fill="#1d96f3"/>
      <path id="Path_2899" data-name="Path 2899" d="M6057.294-1499.463a12.572,12.572,0,0,1-12.57,12.569,12.563,12.563,0,0,1-12.56-12.569,12.556,12.556,0,0,1,12.56-12.56A12.564,12.564,0,0,1,6057.294-1499.463Z" fill="#1d96f3"/>
    </g>
  </g>
</svg>
