<svg xmlns="http://www.w3.org/2000/svg" xmlns:xlink="http://www.w3.org/1999/xlink" width="395.328" height="333.237" viewBox="0 0 395.328 333.237">
  <defs>
    <linearGradient id="linear-gradient" x1="0.118" y1="0.138" x2="0.757" y2="0.889" gradientUnits="objectBoundingBox">
      <stop offset="0" stop-color="#1d96f3"/>
      <stop offset="0.784" stop-color="#4b17e6"/>
    </linearGradient>
  </defs>
  <g id="Nonprofits" transform="translate(-4382.486 191.458)">
    <g id="Group_2966" data-name="Group 2966">
      <g id="Group_2962" data-name="Group 2962">
        <path id="Path_2797" data-name="Path 2797" d="M4612.274,35.09l-19.3,19.3v-.01Z" fill="#f5f8fa"/>
        <path id="Path_2798" data-name="Path 2798" d="M4619.444,31.54a12.433,12.433,0,0,0-7.17,3.55l5.36-5.36Z" fill="#f5f8fa"/>
        <path id="Path_2799" data-name="Path 2799" d="M4633.9,48.81l-3.95,3.95a12.51,12.51,0,0,0,2.84-4.38Z" fill="#f5f8fa"/>
        <path id="Path_2800" data-name="Path 2800" d="M4653.1,56.13l-29.19,29.19,29.18-29.19Z" fill="#f5f8fa"/>
        <path id="Path_2801" data-name="Path 2801" d="M4653.094,56.13l-29.18,29.19,29.19-29.19Zm-77.8,15.93.01.01,8.83-8.84Z" fill="#9cabb7"/>
        <path id="Path_2802" data-name="Path 2802" d="M4777.814-73.78a97.245,97.245,0,0,1-28.67,69.22l-113.71,113.71-22.57,22.58a34.408,34.408,0,0,1-56.82-13.08,34.354,34.354,0,0,1-41.11-30.42,34.323,34.323,0,0,1-30.95-30.92,34.021,34.021,0,0,1-21.03-9.91,34.145,34.145,0,0,1-10.07-24.3c0-.88.03-1.76.1-2.64a34.152,34.152,0,0,1,9.97-21.67l90.24-90.24,17.68,17.68L4542.5-45.4l-24.66,24.66L4509-11.9l-8.83,8.84-19.54,19.53a9.376,9.376,0,0,0,13.26,13.26l19.53-19.54,8.84-8.84,8.84-8.83,24.66-24.67a12.505,12.505,0,0,1,17.68,0,12.5,12.5,0,0,1,0,17.68l-24.67,24.66-8.83,8.84-8.84,8.84-19.54,19.53a9.376,9.376,0,0,0,13.26,13.26l19.54-19.53,8.83-8.84,8.84-8.84,24.66-24.66a12.5,12.5,0,0,1,17.68,17.68l-33.5,33.5-8.83,8.84L4542.5,78.34a9.376,9.376,0,0,0,13.26,13.26l8.28-8.28,11.26-11.25,8.83-8.84,8.84-8.84,19.3-19.3a12.433,12.433,0,0,1,7.17-3.55l-1.81-1.81a12.5,12.5,0,0,1,17.68,17.67l-1.41,1.41-1.11-.43a12.51,12.51,0,0,1-2.84,4.38l-19.3,19.3-8.84,8.84v.01l-8.84,8.83-11.19,11.2a9.374,9.374,0,0,0,13.4,13.11l11.05-11.05,8.84-8.84,8.84-8.84,29.19-29.19,3.95-3.95,74.41-74.42a72.387,72.387,0,0,0,21.35-51.54,72.4,72.4,0,0,0-21.35-51.54l-2.98-2.98a72.97,72.97,0,0,0-103.08,0l-19.17,19.17-8.84-8.84-8.84-8.84,19.17-19.17a98.008,98.008,0,0,1,138.44,0l2.98,2.99A97.222,97.222,0,0,1,4777.814-73.78Z" fill="#9cabb7"/>
      </g>
      <g id="Group_2965" data-name="Group 2965">
        <g id="Group_2963" data-name="Group 2963">
          <path id="Path_2803" data-name="Path 2803" d="M4752.814-73.78a72.387,72.387,0,0,1-21.35,51.54l-74.41,74.42-3.95,3.95h-.01l-29.18,29.19-8.84,8.84-8.84,8.84-11.05,11.05a9.374,9.374,0,0,1-13.4-13.11l11.19-11.2,8.84-8.83V80.9l8.84-8.84,19.3-19.3,3.95-3.95,1.41-1.41a12.5,12.5,0,0,0-17.68-17.67l-5.36,5.36-19.3,19.29v.01l-8.84,8.84-8.84,8.83-11.05,11.05c-.07.07-.14.14-.2.21l-8.28,8.28a9.376,9.376,0,0,1-13.26-13.26l19.54-19.53,8.83-8.84,33.5-33.5a12.5,12.5,0,0,0-17.68-17.68l-24.66,24.66-8.84,8.84-8.83,8.84-19.54,19.53a9.376,9.376,0,0,1-13.26-13.26l19.54-19.53,8.84-8.84,8.83-8.84,24.67-24.66a12.5,12.5,0,0,0,0-17.68,12.505,12.505,0,0,0-17.68,0L4531.1-7.48l-8.84,8.83-8.84,8.84-19.53,19.54a9.376,9.376,0,1,1-13.26-13.26l19.54-19.53L4509-11.9l8.84-8.84L4542.5-45.4l28.37-28.37,17.68,17.67a25.011,25.011,0,0,0,35.36,0,25,25,0,0,0,0-35.35l-17.68-17.68,19.17-19.17a72.97,72.97,0,0,1,103.08,0l2.98,2.98A72.4,72.4,0,0,1,4752.814-73.78Z" fill="#f5f8fa"/>
          <path id="Path_2804" data-name="Path 2804" d="M4633.9,48.81l-3.95,3.95a12.51,12.51,0,0,0,2.84-4.38Z" fill="#f5f8fa"/>
          <path id="Path_2805" data-name="Path 2805" d="M4653.1,56.13l-29.19,29.19,29.18-29.19Z" fill="#f5f8fa"/>
          <path id="Path_2806" data-name="Path 2806" d="M4584.134,63.23l-8.83,8.84-11.26,11.25c.06-.07.13-.14.2-.21l11.05-11.05Z" fill="#9cabb7"/>
          <path id="Path_2807" data-name="Path 2807" d="M4612.274,35.09l-19.3,19.3v-.01Z" fill="#9cabb7"/>
        </g>
        <g id="Group_2964" data-name="Group 2964">
          <path id="Path_2808" data-name="Path 2808" d="M4584.134,63.23l-8.83,8.84-11.26,11.25c.06-.07.13-.14.2-.21l11.05-11.05Z" fill="#f5f8fa"/>
          <path id="Path_2809" data-name="Path 2809" d="M4612.274,35.09l-19.3,19.3v-.01Z" fill="#f5f8fa"/>
          <path id="Path_2810" data-name="Path 2810" d="M4619.444,31.54a12.433,12.433,0,0,0-7.17,3.55l5.36-5.36Z" fill="#f5f8fa"/>
          <path id="Path_2811" data-name="Path 2811" d="M4619.444,31.54a12.433,12.433,0,0,0-7.17,3.55l5.36-5.36Z" fill="#9cabb7"/>
          <path id="Path_2812" data-name="Path 2812" d="M4633.9,48.81l-3.95,3.95a12.51,12.51,0,0,0,2.84-4.38Z" fill="#9cabb7"/>
        </g>
      </g>
    </g>
    <g id="Group_2967" data-name="Group 2967">
      <path id="Path_2813" data-name="Path 2813" d="M4623.914-56.1a25.011,25.011,0,0,1-35.36,0l-17.68-17.67-17.68-17.68-90.24,90.24a34.152,34.152,0,0,0-9.97,21.67l-41.21-41.2a100,100,0,0,1,0-141.42v-.01a100,100,0,0,1,141.42,0l44.2,44.2,8.84,8.84,17.68,17.68A25,25,0,0,1,4623.914-56.1Z" fill="url(#linear-gradient)"/>
    </g>
  </g>
</svg>
